# xmcd
#
# Track frame offsets:
#	150
#	16549
#	31590
#	48035
#	63333
#	79860
#	94905
#	109818
#	125036
#	140484
#	156419
#	171534
#
# Disc length: 2497 seconds
#
# Revision: 0
# Processed by: cddbd v1.5.2PL0 Copyright (c) Steve Scherf et al.
# Submitted via: EasyCDDAExtractor 16.0.6.1
#
DISCID=9809bf0c
DTITLE=Συλλογικός δίσκος - Σε καταραμένες στράτες-Γ. Λαύκας
DYEAR=2005
DGENRE=Ρεμπέτικη
TTITLE0=Κρεούζης Ορφέας-Αγγελοπούλου Κική - Το στοιχειωμένο σπίτι
TTITLE1=Καζαντζίδης Στέλιος - Τα πιο ωραία χρόνια μου
TTITLE2=Χασκίλ Στέλλα-Λαύκας Γιώργος - Σεβιλιάνες [στ. Β. Ταμβάκη]
TTITLE3=Μπίνης Τάκης-Χασκίλ Στέλλα - Παραμιλά
TTITLE4=Τζουανάκος Σταύρος-Κυριαζής Γιάννης - Μεσάνυχτα (Σαν κουρέλι) [στ. Χρ.
TTITLE4=Κολοκοτρώνη]
TTITLE5=Χασκίλ Στέλλα - Εδώ πληρώνονται όλα [στ. Β. Ταμβάκη]
TTITLE6=Λαύκας Γιώργος-Αγγελοπούλου Κική - Σκαλί-σκαλί κατέβηκα
TTITLE7=Γεωργακοπούλου Ιωάννα-Λαύκας Γιώργος - Μάχαιρα έδωσες
TTITLE8=Κρεούζης Ορφέας-Γεωργακοπούλου Ι.-Λαύκας Γιώργος - Ηλιοβασίλεμα σωστό 
TTITLE8=[στ. Κ. Μάνεση]
TTITLE9=Ευγενικός Αθανάσιος - Από τη φτώχεια βασανισμένος [στ. Χ. Βασιλειάδη]
TTITLE10=Αλιφραγκή Ανθούλα - Σε καταραμένες στράτες (Σκαλοπάτι-σκαλοπάτι)
TTITLE11=Καζαντζίδης Στέλιος - Ποιός θα με κλάψει
EXTD=
EXTT0=
EXTT1=
EXTT2=
EXTT3=
EXTT4=
EXTT5=
EXTT6=
EXTT7=
EXTT8=
EXTT9=
EXTT10=
EXTT11=
PLAYORDER=
